<svg xmlns="http://www.w3.org/2000/svg" width="24.605" height="23.836" viewBox="0 0 24.605 23.836">
  <g id="Group_5" data-name="Group 5" transform="translate(-1811.254 -51.117)">
    <path id="Path_1" data-name="Path 1" d="M1811.255,61.788a10.8,10.8,0,0,1,9.115-10.5,10.933,10.933,0,0,1,9.52,2.768,10.389,10.389,0,0,1,1.26,14.143c-.156.2-.163.317.03.5q2.143,2.051,4.264,4.122a1.2,1.2,0,0,1-.008,1.821,1.279,1.279,0,0,1-1.738-.079c-.87-.834-1.733-1.675-2.6-2.513-.575-.556-1.155-1.108-1.721-1.673a.274.274,0,0,0-.431-.032,11.247,11.247,0,0,1-12.017.8,10.583,10.583,0,0,1-5.542-7.7A8.618,8.618,0,0,1,1811.255,61.788Zm2.533.021a8.528,8.528,0,1,0,8.528-8.261A8.343,8.343,0,0,0,1813.788,61.809Z" transform="translate(0)" fill="#fff"/>
  </g>
</svg>
