<svg xmlns="http://www.w3.org/2000/svg" width="24" height="24" viewBox="0 0 30 30">
  <g id="Group_103" data-name="Group 103" transform="translate(-1714 -26)">
    <g id="Ellipse_3" data-name="Ellipse 3" transform="translate(1723 32)" fill="none" stroke="#fff" stroke-width="2">
      <circle cx="6" cy="6" r="6" stroke="none"/>
      <circle cx="6" cy="6" r="5" fill="none"/>
    </g>
    <g id="Path_26" data-name="Path 26" transform="translate(1719.921 43)" fill="none">
      <path d="M9.079,0a9.079,9.079,0,0,1,9.079,9.079C16.673,12.154,7.415,16.1,0,9.079A9.079,9.079,0,0,1,9.079,0Z" stroke="none"/>
      <path d="M 9.079129219055176 1.999996185302734 C 5.463958740234375 1.999996185302734 2.472991943359375 4.724272727966309 2.050935745239258 8.227521896362305 C 4.780551910400391 10.50066184997559 7.531573295593262 10.99999618530273 9.420159339904785 10.99999618530273 C 11.08051872253418 10.99999618530273 12.77553939819336 10.61730575561523 14.19298934936523 9.922435760498047 C 15.21341133117676 9.422192573547363 15.82722854614258 8.890029907226562 16.13688659667969 8.526266098022461 C 15.85385513305664 4.880261421203613 12.79650783538818 1.999996185302734 9.079129219055176 1.999996185302734 M 9.079129219055176 -3.814697265625e-06 C 14.0933895111084 -3.814697265625e-06 18.15825843811035 4.064866065979004 18.15825843811035 9.079126358032227 C 16.67346000671387 12.15444564819336 7.415327072143555 16.0993766784668 0 9.079126358032227 C 0 4.064866065979004 4.064868927001953 -3.814697265625e-06 9.079129219055176 -3.814697265625e-06 Z" stroke="none" fill="#fff"/>
    </g>
    <g id="Ellipse_4" data-name="Ellipse 4" transform="translate(1714 26)" fill="none" stroke="#fff" stroke-width="2">
      <circle cx="15" cy="15" r="15" stroke="none"/>
      <circle cx="15" cy="15" r="14" fill="none"/>
    </g>
  </g>
</svg>
